<svg id="visual" viewBox="0 0 900 600" width="900" height="600" xmlns="http://www.w3.org/2000/svg" xmlns:xlink="http://www.w3.org/1999/xlink" version="1.1"><path d="M362 0L339.7 50C317.3 100 272.7 200 272.5 300C272.3 400 316.7 500 338.8 550L361 600L0 600L0 550C0 500 0 400 0 300C0 200 0 100 0 50L0 0Z" fill="#ffc107"></path><path d="M209 0L218 50C227 100 245 200 243.2 300C241.3 400 219.7 500 208.8 550L198 600L0 600L0 550C0 500 0 400 0 300C0 200 0 100 0 50L0 0Z" fill="#ffb702"></path><path d="M240 0L229.7 50C219.3 100 198.7 200 193 300C187.3 400 196.7 500 201.3 550L206 600L0 600L0 550C0 500 0 400 0 300C0 200 0 100 0 50L0 0Z" fill="#ffad00"></path><path d="M170 0L158.8 50C147.7 100 125.3 200 126.2 300C127 400 151 500 163 550L175 600L0 600L0 550C0 500 0 400 0 300C0 200 0 100 0 50L0 0Z" fill="#ffa300"></path><path d="M56 0L53.8 50C51.7 100 47.3 200 48.2 300C49 400 55 500 58 550L61 600L0 600L0 550C0 500 0 400 0 300C0 200 0 100 0 50L0 0Z" fill="#ff9800"></path></svg>