<svg id="visual" viewBox="0 0 900 600" width="900" height="600" xmlns="http://www.w3.org/2000/svg" xmlns:xlink="http://www.w3.org/1999/xlink" version="1.1"><path d="M384 0L359 50C334 100 284 200 273.7 300C263.3 400 292.7 500 307.3 550L322 600L0 600L0 550C0 500 0 400 0 300C0 200 0 100 0 50L0 0Z" fill="#6cc481"></path><path d="M175 0L188.7 50C202.3 100 229.7 200 239.2 300C248.7 400 240.3 500 236.2 550L232 600L0 600L0 550C0 500 0 400 0 300C0 200 0 100 0 50L0 0Z" fill="#57b87e"></path><path d="M169 0L167.5 50C166 100 163 200 174.2 300C185.3 400 210.7 500 223.3 550L236 600L0 600L0 550C0 500 0 400 0 300C0 200 0 100 0 50L0 0Z" fill="#42ac7b"></path><path d="M83 0L91.8 50C100.7 100 118.3 200 127.7 300C137 400 138 500 138.5 550L139 600L0 600L0 550C0 500 0 400 0 300C0 200 0 100 0 50L0 0Z" fill="#2aa077"></path><path d="M106 0L97.3 50C88.7 100 71.3 200 68.7 300C66 400 78 500 84 550L90 600L0 600L0 550C0 500 0 400 0 300C0 200 0 100 0 50L0 0Z" fill="#009473"></path></svg>