<svg id="visual" viewBox="0 0 900 600" width="900" height="600" xmlns="http://www.w3.org/2000/svg" xmlns:xlink="http://www.w3.org/1999/xlink" version="1.1"><path d="M376 0L350.3 50C324.7 100 273.3 200 281.2 300C289 400 356 500 389.5 550L423 600L0 600L0 550C0 500 0 400 0 300C0 200 0 100 0 50L0 0Z" fill="#fb6a60"></path><path d="M318 0L300.2 50C282.3 100 246.7 200 239.8 300C233 400 255 500 266 550L277 600L0 600L0 550C0 500 0 400 0 300C0 200 0 100 0 50L0 0Z" fill="#fa6156"></path><path d="M159 0L180.2 50C201.3 100 243.7 200 254.8 300C266 400 246 500 236 550L226 600L0 600L0 550C0 500 0 400 0 300C0 200 0 100 0 50L0 0Z" fill="#f8574b"></path><path d="M226 0L219 50C212 100 198 200 171.8 300C145.7 400 107.3 500 88.2 550L69 600L0 600L0 550C0 500 0 400 0 300C0 200 0 100 0 50L0 0Z" fill="#f64d41"></path><path d="M63 0L64.5 50C66 100 69 200 62.3 300C55.7 400 39.3 500 31.2 550L23 600L0 600L0 550C0 500 0 400 0 300C0 200 0 100 0 50L0 0Z" fill="#f44336"></path></svg>